<svg width="85" height="51" viewBox="0 0 85 51" fill="none" xmlns="http://www.w3.org/2000/svg">
<g clip-path="url(#clip0_14_501)">
<path d="M23.9738 18.4291C23.9738 19.4708 24.1127 20.3041 24.2517 20.9291C24.4602 21.5541 24.7382 22.1791 25.1551 22.943C25.2941 23.1513 25.3636 23.3596 25.3636 23.568C25.3636 23.8458 25.2246 24.1235 24.8077 24.4013L23.0704 25.5819C22.7924 25.7208 22.584 25.8596 22.3755 25.8596C22.0975 25.8596 21.8196 25.7208 21.5416 25.443C21.1247 25.0263 20.8467 24.6096 20.5687 24.1235C20.2908 23.6374 20.0128 23.1513 19.7348 22.4569C17.5806 25.0263 14.8705 26.2763 11.535 26.2763C9.17228 26.2763 7.36552 25.5819 5.97571 24.2624C4.5859 22.943 3.89099 21.1374 3.89099 18.9152C3.89099 16.5541 4.72488 14.6096 6.39265 13.2208C8.06043 11.8319 10.3536 11.068 13.2027 11.068C14.1756 11.068 15.1485 11.1374 16.1213 11.2763C17.1637 11.4152 18.2061 11.6235 19.3179 11.9013V9.88742C19.3179 7.80409 18.901 6.27631 17.9976 5.44298C17.0942 4.60965 15.6349 4.19298 13.4807 4.19298C12.5078 4.19298 11.535 4.33187 10.4926 4.5402C9.45024 4.81798 8.47737 5.09576 7.5045 5.51242C7.08756 5.65131 6.74011 5.7902 6.53163 5.85965C6.32316 5.85965 6.18418 5.92909 6.11469 5.92909C5.69775 5.92909 5.55877 5.65131 5.55877 5.09576V3.70687C5.55877 3.2902 5.62826 2.94298 5.76724 2.73465C5.90622 2.52631 6.18418 2.31798 6.53163 2.17909C7.5045 1.69298 8.68584 1.27631 10.0062 0.929091C11.396 0.581868 12.7858 0.373535 14.3146 0.373535C17.6501 0.373535 20.0128 1.13742 21.6111 2.59576C23.1399 4.12354 23.9043 6.34576 23.9043 9.47076L23.9738 18.4291ZM12.7163 22.6652C13.6197 22.6652 14.5925 22.5263 15.5654 22.1791C16.5383 21.8319 17.4417 21.2069 18.2061 20.3735C18.623 19.818 18.9704 19.2624 19.1789 18.568C19.3179 17.8735 19.4569 17.1096 19.4569 16.1374V14.9569C18.623 14.7485 17.7891 14.6096 16.8857 14.4708C15.9824 14.3319 15.1485 14.3319 14.2451 14.3319C12.3688 14.3319 11.0485 14.6791 10.0757 15.443C9.17228 16.2069 8.68584 17.2485 8.68584 18.6374C8.68584 19.9569 9.03329 20.9291 9.7282 21.5541C10.4231 22.3874 11.396 22.6652 12.7163 22.6652ZM35.0228 25.7208C34.5363 25.7208 34.1889 25.6513 33.9804 25.443C33.7719 25.3041 33.5635 24.8874 33.4245 24.3319L26.8924 2.80409C26.7534 2.24854 26.6144 1.90131 26.6144 1.69298C26.6144 1.27631 26.8229 0.998535 27.3093 0.998535H30.0194C30.5754 0.998535 30.9228 1.06798 31.1313 1.27631C31.3398 1.4152 31.5482 1.83187 31.6872 2.38742L36.3431 20.7902L40.6515 2.38742C40.7905 1.83187 40.9295 1.48465 41.2074 1.27631C41.4159 1.13742 41.8328 0.998535 42.3193 0.998535H44.543C45.0989 0.998535 45.4464 1.06798 45.6548 1.27631C45.8633 1.4152 46.0718 1.83187 46.2108 2.38742L50.5887 20.9985L55.3835 2.38742C55.5225 1.83187 55.731 1.48465 55.9394 1.27631C56.1479 1.13742 56.4954 0.998535 57.0513 0.998535H59.6224C60.0394 0.998535 60.3173 1.20687 60.3173 1.69298C60.3173 1.83187 60.3173 1.97076 60.2479 2.10965C60.2479 2.24854 60.1784 2.52631 60.0394 2.80409L53.2988 24.3319C53.1598 24.8874 52.9513 25.2346 52.7429 25.443C52.5344 25.5819 52.1869 25.7208 51.7005 25.7208H49.3378C48.7819 25.7208 48.4345 25.6513 48.226 25.443C48.0175 25.2346 47.809 24.8874 47.6701 24.3319L43.3616 6.4152L39.0532 24.3319C38.9142 24.8874 38.7753 25.2346 38.4973 25.443C38.2888 25.6513 37.8719 25.7208 37.3855 25.7208H35.0228ZM70.8104 26.4152C69.3511 26.4152 67.8918 26.2763 66.502 25.9291C65.1122 25.5819 64.0003 25.2346 63.3054 24.818C62.8885 24.5402 62.541 24.2624 62.4716 24.0541C62.4021 23.8458 62.2631 23.4985 62.2631 23.2902V21.9013C62.2631 21.3458 62.4716 21.068 62.8885 21.068C63.0275 21.068 63.2359 21.068 63.3749 21.1374C63.5139 21.2069 63.7919 21.2763 64.0698 21.4152C65.0427 21.8319 66.0156 22.1791 67.1274 22.3874C68.2393 22.5958 69.3511 22.7346 70.463 22.7346C72.2002 22.7346 73.59 22.4569 74.4934 21.8319C75.4663 21.2069 75.9527 20.3041 75.9527 19.193C75.9527 18.4291 75.6748 17.8041 75.1883 17.2485C74.7019 16.693 73.729 16.2763 72.4087 15.7902L68.3783 14.5402C66.363 13.9152 64.8342 12.943 63.9309 11.693C63.0275 10.443 62.541 9.12354 62.541 7.6652C62.541 6.48465 62.819 5.44298 63.3054 4.60965C63.7919 3.77631 64.4868 2.94298 65.3207 2.31798C66.1546 1.69298 67.1274 1.20687 68.2393 0.859646C69.3511 0.512424 70.5325 0.373535 71.7138 0.373535C72.3392 0.373535 72.9646 0.373535 73.59 0.512424C74.2155 0.581868 74.8409 0.720757 75.3968 0.790202C75.9527 0.929091 76.5086 1.06798 76.9951 1.20687C77.4815 1.34576 77.8985 1.55409 78.1764 1.69298C78.5934 1.90131 78.8713 2.10965 79.0103 2.38742C79.1493 2.59576 79.2883 2.94298 79.2883 3.2902V4.60965C79.2883 5.1652 79.0798 5.51242 78.6629 5.51242C78.4544 5.51242 78.1069 5.37354 77.6205 5.1652C76.0222 4.47076 74.285 4.05409 72.2697 4.05409C70.6714 4.05409 69.4206 4.33187 68.5867 4.81798C67.7528 5.30409 67.2664 6.13742 67.2664 7.31798C67.2664 8.08187 67.5444 8.77631 68.1003 9.26242C68.6562 9.81798 69.6986 10.3041 71.1579 10.7902L75.1188 12.0402C77.1341 12.6652 78.5934 13.568 79.4273 14.6791C80.2611 15.7902 80.6781 17.1096 80.6781 18.568C80.6781 19.7485 80.4001 20.8596 79.9832 21.7624C79.4967 22.7346 78.8018 23.568 77.9679 24.193C77.1341 24.8874 76.0917 25.3735 74.9104 25.7208C73.5206 26.2763 72.2002 26.4152 70.8104 26.4152Z" fill="#DAE4F1"/>
<path fill-rule="evenodd" clip-rule="evenodd" d="M76.0915 39.9569C66.9187 46.693 53.5765 50.3041 42.1801 50.3041C26.1278 50.3041 11.6737 44.4014 0.763692 34.5403C-0.0701946 33.7764 0.694202 32.7347 1.73656 33.2903C13.55 40.1653 28.0735 44.2625 43.153 44.2625C53.2986 44.2625 64.4866 42.1791 74.7712 37.8041C76.2305 37.1791 77.5508 38.8458 76.0915 39.9569Z" fill="#DAE4F1"/>
<path fill-rule="evenodd" clip-rule="evenodd" d="M79.8442 35.6514C78.6629 34.1236 72.1308 34.9569 69.1427 35.3041C68.2393 35.443 68.1003 34.6097 68.9342 34.0541C74.146 30.3736 82.7628 31.4153 83.7357 32.6653C84.7086 33.9153 83.4578 42.5264 78.5934 46.6236C77.829 47.2486 77.1341 46.9014 77.4816 46.068C78.5934 43.2903 81.0256 37.1097 79.8442 35.6514Z" fill="#DAE4F1"/>
<path d="M23.9738 18.4291C23.9738 19.4708 24.1127 20.3041 24.2517 20.9291C24.4602 21.5541 24.7382 22.1791 25.1551 22.943C25.2941 23.1513 25.3636 23.3596 25.3636 23.568C25.3636 23.8458 25.2246 24.1235 24.8077 24.4013L23.0704 25.5819C22.7924 25.7208 22.584 25.8596 22.3755 25.8596C22.0975 25.8596 21.8196 25.7208 21.5416 25.443C21.1247 25.0263 20.8467 24.6096 20.5687 24.1235C20.2908 23.6374 20.0128 23.1513 19.7348 22.4569C17.5806 25.0263 14.8705 26.2763 11.535 26.2763C9.17228 26.2763 7.36552 25.5819 5.97571 24.2624C4.5859 22.943 3.89099 21.1374 3.89099 18.9152C3.89099 16.5541 4.72488 14.6096 6.39265 13.2208C8.06043 11.8319 10.3536 11.068 13.2027 11.068C14.1756 11.068 15.1485 11.1374 16.1213 11.2763C17.1637 11.4152 18.2061 11.6235 19.3179 11.9013V9.88742C19.3179 7.80409 18.901 6.27631 17.9976 5.44298C17.0942 4.60965 15.6349 4.19298 13.4807 4.19298C12.5078 4.19298 11.535 4.33187 10.4926 4.5402C9.45024 4.81798 8.47737 5.09576 7.5045 5.51242C7.08756 5.65131 6.74011 5.7902 6.53163 5.85965C6.32316 5.85965 6.18418 5.92909 6.11469 5.92909C5.69775 5.92909 5.55877 5.65131 5.55877 5.09576V3.70687C5.55877 3.2902 5.62826 2.94298 5.76724 2.73465C5.90622 2.52631 6.18418 2.31798 6.53163 2.17909C7.5045 1.69298 8.68584 1.27631 10.0062 0.929091C11.396 0.581868 12.7858 0.373535 14.3146 0.373535C17.6501 0.373535 20.0128 1.13742 21.6111 2.59576C23.1399 4.12354 23.9043 6.34576 23.9043 9.47076L23.9738 18.4291ZM12.7163 22.6652C13.6197 22.6652 14.5925 22.5263 15.5654 22.1791C16.5383 21.8319 17.4417 21.2069 18.2061 20.3735C18.623 19.818 18.9704 19.2624 19.1789 18.568C19.3179 17.8735 19.4569 17.1096 19.4569 16.1374V14.9569C18.623 14.7485 17.7891 14.6096 16.8857 14.4708C15.9824 14.3319 15.1485 14.3319 14.2451 14.3319C12.3688 14.3319 11.0485 14.6791 10.0757 15.443C9.17228 16.2069 8.68584 17.2485 8.68584 18.6374C8.68584 19.9569 9.03329 20.9291 9.7282 21.5541C10.4231 22.3874 11.396 22.6652 12.7163 22.6652ZM35.0228 25.7208C34.5363 25.7208 34.1889 25.6513 33.9804 25.443C33.7719 25.3041 33.5635 24.8874 33.4245 24.3319L26.8924 2.80409C26.7534 2.24854 26.6144 1.90131 26.6144 1.69298C26.6144 1.27631 26.8229 0.998535 27.3093 0.998535H30.0194C30.5754 0.998535 30.9228 1.06798 31.1313 1.27631C31.3398 1.4152 31.5482 1.83187 31.6872 2.38742L36.3431 20.7902L40.6515 2.38742C40.7905 1.83187 40.9295 1.48465 41.2074 1.27631C41.4159 1.13742 41.8328 0.998535 42.3193 0.998535H44.543C45.0989 0.998535 45.4464 1.06798 45.6548 1.27631C45.8633 1.4152 46.0718 1.83187 46.2108 2.38742L50.5887 20.9985L55.3835 2.38742C55.5225 1.83187 55.731 1.48465 55.9394 1.27631C56.1479 1.13742 56.4954 0.998535 57.0513 0.998535H59.6224C60.0394 0.998535 60.3173 1.20687 60.3173 1.69298C60.3173 1.83187 60.3173 1.97076 60.2479 2.10965C60.2479 2.24854 60.1784 2.52631 60.0394 2.80409L53.2988 24.3319C53.1598 24.8874 52.9513 25.2346 52.7429 25.443C52.5344 25.5819 52.1869 25.7208 51.7005 25.7208H49.3378C48.7819 25.7208 48.4345 25.6513 48.226 25.443C48.0175 25.2346 47.809 24.8874 47.6701 24.3319L43.3616 6.4152L39.0532 24.3319C38.9142 24.8874 38.7753 25.2346 38.4973 25.443C38.2888 25.6513 37.8719 25.7208 37.3855 25.7208H35.0228ZM70.8104 26.4152C69.3511 26.4152 67.8918 26.2763 66.502 25.9291C65.1122 25.5819 64.0003 25.2346 63.3054 24.818C62.8885 24.5402 62.541 24.2624 62.4716 24.0541C62.4021 23.8458 62.2631 23.4985 62.2631 23.2902V21.9013C62.2631 21.3458 62.4716 21.068 62.8885 21.068C63.0275 21.068 63.2359 21.068 63.3749 21.1374C63.5139 21.2069 63.7919 21.2763 64.0698 21.4152C65.0427 21.8319 66.0156 22.1791 67.1274 22.3874C68.2393 22.5958 69.3511 22.7346 70.463 22.7346C72.2002 22.7346 73.59 22.4569 74.4934 21.8319C75.4663 21.2069 75.9527 20.3041 75.9527 19.193C75.9527 18.4291 75.6748 17.8041 75.1883 17.2485C74.7019 16.693 73.729 16.2763 72.4087 15.7902L68.3783 14.5402C66.363 13.9152 64.8342 12.943 63.9309 11.693C63.0275 10.443 62.541 9.12354 62.541 7.6652C62.541 6.48465 62.819 5.44298 63.3054 4.60965C63.7919 3.77631 64.4868 2.94298 65.3207 2.31798C66.1546 1.69298 67.1274 1.20687 68.2393 0.859646C69.3511 0.512424 70.5325 0.373535 71.7138 0.373535C72.3392 0.373535 72.9646 0.373535 73.59 0.512424C74.2155 0.581868 74.8409 0.720757 75.3968 0.790202C75.9527 0.929091 76.5086 1.06798 76.9951 1.20687C77.4815 1.34576 77.8985 1.55409 78.1764 1.69298C78.5934 1.90131 78.8713 2.10965 79.0103 2.38742C79.1493 2.59576 79.2883 2.94298 79.2883 3.2902V4.60965C79.2883 5.1652 79.0798 5.51242 78.6629 5.51242C78.4544 5.51242 78.1069 5.37354 77.6205 5.1652C76.0222 4.47076 74.285 4.05409 72.2697 4.05409C70.6714 4.05409 69.4206 4.33187 68.5867 4.81798C67.7528 5.30409 67.2664 6.13742 67.2664 7.31798C67.2664 8.08187 67.5444 8.77631 68.1003 9.26242C68.6562 9.81798 69.6986 10.3041 71.1579 10.7902L75.1188 12.0402C77.1341 12.6652 78.5934 13.568 79.4273 14.6791C80.2611 15.7902 80.6781 17.1096 80.6781 18.568C80.6781 19.7485 80.4001 20.8596 79.9832 21.7624C79.4967 22.7346 78.8018 23.568 77.9679 24.193C77.1341 24.8874 76.0917 25.3735 74.9104 25.7208C73.5206 26.2763 72.2002 26.4152 70.8104 26.4152Z" fill="#DAE4F1"/>
<path fill-rule="evenodd" clip-rule="evenodd" d="M76.0915 39.9569C66.9187 46.693 53.5765 50.3041 42.1801 50.3041C26.1278 50.3041 11.6737 44.4014 0.763692 34.5403C-0.0701946 33.7764 0.694202 32.7347 1.73656 33.2903C13.55 40.1653 28.0735 44.2625 43.153 44.2625C53.2986 44.2625 64.4866 42.1791 74.7712 37.8041C76.2305 37.1791 77.5508 38.8458 76.0915 39.9569Z" fill="#DAE4F1"/>
<path fill-rule="evenodd" clip-rule="evenodd" d="M79.8442 35.6514C78.6629 34.1236 72.1308 34.9569 69.1427 35.3041C68.2393 35.443 68.1003 34.6097 68.9342 34.0541C74.146 30.3736 82.7628 31.4153 83.7357 32.6653C84.7086 33.9153 83.4578 42.5264 78.5934 46.6236C77.829 47.2486 77.1341 46.9014 77.4816 46.068C78.5934 43.2903 81.0256 37.1097 79.8442 35.6514Z" fill="#DAE4F1"/>
</g>
<defs>
<clipPath id="clip0_14_501">
<rect width="83.6667" height="50" fill="white" transform="translate(0.415527 0.304077)"/>
</clipPath>
</defs>
</svg>
