<svg width="122" height="32" viewBox="0 0 122 32" fill="none" xmlns="http://www.w3.org/2000/svg">
<g clip-path="url(#clip0_14_499)">
<path d="M38.8428 12.0102C38.6113 10.3348 37.6854 8.88013 36.0146 7.56589L35.0484 6.91379L34.4042 7.88692C33.5789 9.14097 33.1662 10.8866 33.2971 12.562C33.3574 13.1439 33.5487 14.2073 34.1425 15.1203C33.5487 15.4513 32.3711 15.8928 30.801 15.8627H0.807448L0.747058 16.2138C0.46524 17.8892 0.46524 23.1361 3.83699 27.1591C6.40355 30.219 10.2383 31.774 15.2506 31.774C26.1208 31.774 34.1526 26.7277 37.9269 17.5381C39.4065 17.5682 42.5971 17.5481 44.2376 14.3879C44.2779 14.3177 44.3786 14.1271 44.6604 13.5251L44.8214 13.194L43.9055 12.572C42.899 11.9199 40.6143 11.6691 38.8428 12.0102ZM24.7922 0.804077H20.2328V4.98757H24.7922V0.804077ZM24.7922 5.83029H20.2328V10.0138H24.7922V5.83029ZM19.3974 5.83029H14.838V10.0138H19.3974V5.83029ZM14.0126 5.83029H9.45323V10.0138H14.0126V5.83029ZM8.61784 10.8565H4.05842V15.04H8.61784V10.8565ZM14.0126 10.8565H9.45323V15.04H14.0126V10.8565ZM19.3974 10.8565H14.838V15.04H19.3974V10.8565ZM24.7922 10.8565H20.2328V15.04H24.7922V10.8565ZM30.187 10.8565H25.6276V15.04H30.187V10.8565ZM57.9058 9.91346C57.5737 9.91346 57.2919 10.0238 57.0805 10.2445C56.8591 10.4652 56.7484 10.7562 56.7484 11.0872V16.7555C55.6211 15.8225 54.3227 15.361 52.8331 15.361C51.112 15.361 49.6425 15.983 48.4247 17.2271C47.2068 18.4711 46.6029 19.9659 46.6029 21.7216C46.6029 23.4772 47.2169 24.972 48.4247 26.2161C49.6425 27.4601 51.112 28.0821 52.8331 28.0821C54.5542 28.0821 56.0136 27.4601 57.2415 26.2161C58.4594 24.9921 59.0633 23.4872 59.0633 21.7216V11.0973C59.0633 10.7562 58.9526 10.4753 58.7211 10.2546C58.5097 10.0238 58.238 9.91346 57.9058 9.91346ZM56.4464 23.2665C56.2451 23.7481 55.9633 24.1694 55.611 24.5306C55.2587 24.8918 54.8461 25.1827 54.373 25.3934C53.9 25.6041 53.3867 25.7144 52.8432 25.7144C52.2997 25.7144 51.7863 25.6141 51.3032 25.3934C50.8302 25.1827 50.4175 24.8918 50.0652 24.5306C49.713 24.1694 49.4412 23.7481 49.2399 23.2665C49.0386 22.785 48.938 22.2633 48.938 21.7216C48.938 21.1798 49.0386 20.6581 49.2399 20.1766C49.4412 19.695 49.723 19.2737 50.0652 18.9125C50.4175 18.5513 50.8302 18.2704 51.3032 18.0497C51.7763 17.839 52.2896 17.7287 52.8432 17.7287C53.3967 17.7287 53.8899 17.829 54.373 18.0497C54.8461 18.2604 55.2587 18.5513 55.611 18.9125C55.9633 19.2737 56.2451 19.695 56.4464 20.1766C56.6477 20.6581 56.7484 21.1698 56.7484 21.7115C56.7484 22.2633 56.6477 22.775 56.4464 23.2665ZM108.895 17.2271C107.667 15.983 106.187 15.361 104.486 15.361C102.775 15.361 101.296 15.983 100.078 17.2271C98.86 18.4711 98.2561 19.9659 98.2561 21.7216C98.2561 23.4772 98.8701 24.972 100.078 26.2161C101.296 27.4601 102.765 28.0821 104.486 28.0821C106.056 28.0821 107.405 27.5704 108.563 26.5371C108.784 26.3063 108.895 26.0154 108.895 25.6843C108.895 25.3533 108.784 25.0623 108.563 24.8416C108.341 24.6209 108.069 24.5105 107.737 24.5105C107.445 24.5206 107.194 24.6109 106.972 24.8115C106.62 25.1125 106.248 25.3432 105.835 25.4937C105.422 25.6442 104.98 25.7245 104.486 25.7245C104.054 25.7245 103.641 25.6542 103.248 25.5238C102.856 25.3834 102.483 25.1928 102.161 24.952C101.829 24.7012 101.547 24.4102 101.296 24.0691C101.054 23.728 100.863 23.3468 100.742 22.9254H109.559C109.881 22.9254 110.163 22.8151 110.384 22.5944C110.616 22.3737 110.727 22.0827 110.727 21.7516C110.727 20.8688 110.576 20.0562 110.274 19.3038C109.962 18.5313 109.509 17.8491 108.895 17.2271ZM100.722 20.5478C100.843 20.1364 101.024 19.7552 101.266 19.4041C101.507 19.063 101.799 18.762 102.131 18.5212C102.463 18.2704 102.836 18.0898 103.238 17.9494C103.641 17.8089 104.054 17.7487 104.476 17.7487C104.899 17.7487 105.312 17.819 105.704 17.9494C106.107 18.0898 106.469 18.2805 106.791 18.5212C107.123 18.772 107.415 19.063 107.657 19.4041C107.908 19.7452 108.09 20.1264 108.22 20.5478H100.722ZM121.104 16.1636C120.892 15.963 120.63 15.8025 120.318 15.6821C120.006 15.5617 119.654 15.4814 119.282 15.4413C118.909 15.3911 118.557 15.3711 118.225 15.3711C117.48 15.3711 116.786 15.4915 116.131 15.7322C115.477 15.973 114.873 16.3241 114.32 16.7756V16.5549C114.32 16.2238 114.209 15.9529 113.978 15.7222C113.746 15.4915 113.484 15.3711 113.162 15.3711C112.84 15.3711 112.558 15.4915 112.337 15.7222C112.105 15.9529 111.995 16.2339 111.995 16.5549V26.9083C111.995 27.2394 112.105 27.5102 112.337 27.741C112.568 27.9717 112.84 28.0921 113.162 28.0921C113.484 28.0921 113.756 27.9717 113.978 27.741C114.209 27.5102 114.32 27.2293 114.32 26.9083V21.7316C114.32 21.1798 114.42 20.6581 114.622 20.1766C114.823 19.695 115.105 19.2737 115.457 18.9125C115.809 18.5513 116.222 18.2704 116.695 18.0597C117.168 17.8491 117.681 17.7487 118.225 17.7487C118.768 17.7487 119.282 17.8491 119.755 18.0296C119.936 18.1099 120.107 18.1601 120.248 18.1601C120.409 18.1601 120.56 18.13 120.701 18.0698C120.842 18.0096 120.963 17.9193 121.073 17.819C121.174 17.7086 121.265 17.5882 121.325 17.4377C121.385 17.2973 121.416 17.1368 121.416 16.9762C121.416 16.6351 121.315 16.3643 121.104 16.1636ZM71.0506 17.2271C69.8227 15.983 68.3432 15.361 66.6422 15.361C64.9412 15.361 63.4516 15.983 62.2337 17.2271C61.0159 18.4711 60.412 19.9659 60.412 21.7216C60.412 23.4772 61.026 24.972 62.2337 26.2161C63.4516 27.4601 64.9211 28.0821 66.6422 28.0821C68.3633 28.0821 69.8227 27.4601 71.0506 26.2161C72.2685 24.9921 72.8724 23.4872 72.8724 21.7216C72.8623 20.8387 72.7113 20.0261 72.4094 19.2837C72.1074 18.5413 71.6545 17.8491 71.0506 17.2271ZM70.2454 23.2665C70.0441 23.7481 69.7623 24.1694 69.41 24.5306C69.0578 24.8918 68.6451 25.1827 68.1721 25.3934C67.699 25.6041 67.1857 25.7144 66.6422 25.7144C66.0987 25.7144 65.5854 25.6141 65.1022 25.3934C64.6292 25.1827 64.2165 24.8918 63.8643 24.5306C63.512 24.1694 63.2402 23.7481 63.0389 23.2665C62.8376 22.785 62.737 22.2633 62.737 21.7216C62.737 21.1798 62.8376 20.6581 63.0389 20.1766C63.2402 19.695 63.5221 19.2737 63.8643 18.9125C64.2165 18.5513 64.6292 18.2704 65.1022 18.0497C65.5753 17.839 66.0886 17.7287 66.6422 17.7287C67.1958 17.7287 67.6889 17.829 68.1721 18.0497C68.6451 18.2604 69.0578 18.5513 69.41 18.9125C69.7623 19.2737 70.0441 19.695 70.2454 20.1766C70.4467 20.6581 70.5474 21.1698 70.5474 21.7115C70.5474 22.2633 70.4467 22.775 70.2454 23.2665ZM96.9779 16.5449C96.9779 16.3843 96.9477 16.2339 96.8873 16.0934C96.8269 15.9529 96.7464 15.8225 96.6357 15.7122C96.535 15.6018 96.4042 15.5115 96.2633 15.4614C96.1224 15.4012 95.9714 15.3711 95.8104 15.3711C95.5789 15.3711 95.3675 15.4313 95.1863 15.5517L88.5234 19.9659V11.1073C88.5234 10.7762 88.4126 10.4953 88.1811 10.2646C87.9497 10.0339 87.688 9.91346 87.3659 9.91346C87.0438 9.91346 86.762 10.0339 86.5406 10.2646C86.3091 10.4953 86.1984 10.7762 86.1984 11.1073V26.8882C86.1984 27.2193 86.3091 27.5002 86.5406 27.7309C86.7721 27.9617 87.0438 28.0821 87.3659 28.0821C87.688 28.0821 87.9597 27.9617 88.1811 27.7309C88.4126 27.5002 88.5234 27.2193 88.5234 26.8882V22.785L89.8821 21.872L95.0253 27.761C95.2367 27.9617 95.4984 28.062 95.8003 28.062C95.9613 28.062 96.1123 28.0319 96.2532 27.9717C96.3941 27.9115 96.5149 27.8212 96.6256 27.7209C96.7263 27.6105 96.8169 27.4902 96.8773 27.3397C96.9376 27.1992 96.9678 27.0387 96.9678 26.8882C96.9678 26.5772 96.8571 26.3063 96.6458 26.0555L91.875 20.5678L96.5451 17.4779C96.837 17.2772 96.9779 16.9662 96.9779 16.5449ZM77.6432 18.9025C77.9954 18.5413 78.4182 18.2604 78.8912 18.0497C79.3643 17.839 79.8776 17.7387 80.4211 17.7387C80.9143 17.7387 81.3672 17.819 81.7799 17.9895C82.1925 18.1601 82.5951 18.4008 82.9675 18.7219C83.1889 18.9025 83.4406 18.9928 83.7224 18.9928C84.0545 18.9928 84.3363 18.8824 84.5477 18.6516C84.7691 18.4209 84.8799 18.14 84.8799 17.7989C84.8799 17.4578 84.749 17.1468 84.4772 16.906C83.3298 15.8727 81.9811 15.361 80.411 15.361C78.6899 15.361 77.2204 15.983 76.0026 17.2271C74.7847 18.4711 74.1808 19.9659 74.1808 21.7216C74.1808 23.4772 74.7948 24.972 76.0026 26.2161C77.2204 27.4601 78.6899 28.0821 80.411 28.0821C81.9711 28.0821 83.3298 27.5704 84.4772 26.5371C84.7188 26.2863 84.8497 25.9953 84.8497 25.6643C84.8497 25.3332 84.7389 25.0423 84.5175 24.8216C84.2961 24.6008 84.0243 24.4905 83.6922 24.4905C83.4104 24.5005 83.1688 24.5808 82.9575 24.7413C82.585 25.0724 82.1925 25.3131 81.7799 25.4737C81.3672 25.6342 80.9143 25.7144 80.4211 25.7144C79.8776 25.7144 79.3743 25.6141 78.8912 25.4034C78.4182 25.1928 77.9954 24.9118 77.6432 24.5507C77.2909 24.1995 77.0091 23.7682 76.7977 23.2866C76.5964 22.805 76.4958 22.2834 76.4958 21.7316C76.4958 21.1798 76.5964 20.6581 76.7977 20.1766C77.0091 19.685 77.2909 19.2737 77.6432 18.9025Z" fill="#DAE4F1"/>
</g>
<defs>
<clipPath id="clip0_14_499">
<rect width="120.779" height="31" fill="white" transform="translate(0.636353 0.804077)"/>
</clipPath>
</defs>
</svg>
