<svg width="151" height="33" viewBox="0 0 151 33" fill="none" xmlns="http://www.w3.org/2000/svg">
<g clip-path="url(#clip0_14_487)">
<path fill-rule="evenodd" clip-rule="evenodd" d="M118.916 7.4984C121.006 7.4984 122.88 7.85635 124.322 8.64385C125.836 9.43135 126.989 10.4336 127.854 11.6507C128.719 12.8677 129.368 14.2995 129.8 15.8745C130.233 17.4495 130.377 19.0245 130.377 20.6711V21.5302H112.933C112.933 22.3893 113.15 23.1768 113.51 23.8211C113.87 24.537 114.375 25.1098 115.024 25.6109C115.672 26.112 116.321 26.47 117.114 26.7563C117.907 27.0427 118.7 27.1143 119.421 27.1143C120.574 27.1143 121.511 27.0427 122.376 26.8279C123.241 26.6132 123.962 26.3984 124.538 26.112C125.115 25.8257 125.62 25.5393 125.98 25.2529C126.34 24.9666 126.629 24.6802 126.845 24.4654L130.016 27.9734C129.944 28.045 129.656 28.3314 129.224 28.7609C128.791 29.1904 128.142 29.6916 127.277 30.1211C126.412 30.6223 125.331 31.0518 124.034 31.4098C122.736 31.7677 121.151 31.9825 119.349 31.9825C117.474 31.9825 115.817 31.6961 114.231 31.0518C112.717 30.4075 111.42 29.5484 110.338 28.4745C109.257 27.4007 108.392 26.0404 107.816 24.537C107.239 23.0336 106.951 21.3154 106.951 19.4541C106.951 17.7359 107.239 16.1609 107.816 14.7291C108.392 13.2973 109.185 12.0086 110.266 10.9348C111.347 9.8609 112.573 9.00181 114.015 8.35749C115.528 7.78476 117.114 7.4984 118.916 7.4984ZM76.8209 0.554077V7.85635H83.0919V12.7961H76.8209V22.962C76.8209 24.2507 77.0371 25.2529 77.4696 25.9688C77.902 26.6848 78.6228 27.0427 79.632 27.0427C80.569 27.0427 81.2899 26.8995 81.8665 26.6848C82.4432 26.3984 82.9477 26.112 83.4523 25.7541L85.9751 29.3336C84.8218 30.2643 83.6685 30.9802 82.5152 31.3382C81.3619 31.7677 80.1366 31.9825 78.695 31.9825C77.2534 31.9825 76.028 31.7677 75.0189 31.3382C74.0098 30.9086 73.2168 30.3359 72.5681 29.62C71.9194 28.9041 71.4869 27.9734 71.2706 26.8995C71.0544 25.8257 70.8382 24.6802 70.8382 23.3916V12.8677H66.8737V7.92794H70.8382V0.554077H76.8209ZM97.0035 0.554077V7.85635H103.274V12.7961H97.0035V22.962C97.0035 24.2507 97.2197 25.2529 97.6522 25.9688C98.0846 26.6848 98.8055 27.0427 99.8146 27.0427C100.752 27.0427 101.473 26.8995 102.049 26.6848C102.626 26.3984 103.13 26.112 103.635 25.7541L106.158 29.3336C105.004 30.2643 103.851 30.9802 102.698 31.3382C101.545 31.7677 100.319 31.9825 98.8776 31.9825C97.436 31.9825 96.2106 31.7677 95.2735 31.3382C94.2644 30.9086 93.4715 30.3359 92.8228 29.62C92.1741 28.9041 91.7415 27.9734 91.5253 26.8995C91.3091 25.8257 91.0928 24.6802 91.0928 23.3916V12.8677H87.1284V7.92794H91.0928V0.554077H97.0035ZM46.9795 7.85635V22.1745C46.9795 23.6779 47.4119 24.7518 48.2048 25.6109C48.9977 26.3984 50.0789 26.8279 51.3764 26.8279C52.1693 26.8279 52.89 26.6848 53.6108 26.3984C54.3317 26.112 54.9083 25.6825 55.4129 25.1098C55.9174 24.537 56.2778 23.8927 56.5661 23.1768C56.8545 22.4609 56.9987 21.6734 56.9987 20.8143V7.92794H62.9093V31.3382H57.2869L57.1428 28.7609C56.8545 29.1189 56.4941 29.4052 56.0616 29.7632C55.6291 30.1211 55.1246 30.4791 54.5479 30.7654C53.9713 31.0518 53.3225 31.3382 52.6017 31.5529C51.8809 31.7677 51.0159 31.8393 50.0789 31.8393C47.1236 31.8393 44.9612 30.9802 43.3754 29.262C41.8617 27.5438 41.0688 25.2529 41.0688 22.3177V7.85635H46.9795ZM6.83048 25.1098V31.2666H0.559448V25.1098H6.83048ZM147.604 7.56999C148.181 7.56999 148.685 7.56999 149.118 7.64158C149.55 7.71317 150.055 7.85635 150.487 7.99953L149.262 13.4404C148.83 13.2973 148.469 13.1541 148.037 13.0825C147.604 13.0109 147.1 13.0109 146.595 13.0109C145.802 13.0109 145.009 13.1541 144.288 13.3689C143.568 13.6552 142.919 14.0132 142.414 14.5143C141.91 15.0154 141.477 15.5882 141.117 16.3041C140.829 17.02 140.612 17.7359 140.612 18.595V31.2666H134.702V7.85635H140.324L140.468 10.8632C140.756 10.5052 141.045 10.1473 141.477 9.7893C141.91 9.43135 142.414 9.00181 142.919 8.71544C143.496 8.35749 144.144 8.14271 144.865 7.85635C145.802 7.71317 146.667 7.56999 147.604 7.56999ZM35.7348 0.554077V31.2666H29.8242V0.554077H35.7348ZM19.3004 12.8677V19.0245H0.559448V12.8677H19.3004ZM118.916 12.3666C117.979 12.3666 117.114 12.5098 116.321 12.8677C115.6 13.1541 114.952 13.5836 114.447 14.0132C113.942 14.5143 113.582 15.0154 113.294 15.5882C113.005 16.1609 112.861 16.7336 112.861 17.3779H124.322C124.322 16.8052 124.178 16.2325 123.962 15.5882C123.745 15.0154 123.385 14.4427 122.953 14.0132C122.52 13.512 121.943 13.1541 121.223 12.8677C120.574 12.5098 119.781 12.3666 118.916 12.3666ZM25.5715 0.554077V6.71089H0.559448V0.554077H25.5715Z" fill="#DAE4F1"/>
</g>
<defs>
<clipPath id="clip0_14_487">
<rect width="150" height="31.5" fill="white" transform="translate(0.559448 0.554077)"/>
</clipPath>
</defs>
</svg>
