<svg width="53" height="71" viewBox="0 0 53 71" fill="none" xmlns="http://www.w3.org/2000/svg">
<g clip-path="url(#clip0_14_517)">
<path d="M17.3499 54.4169C17.3499 54.4169 14.6797 55.9697 19.2502 56.4951C24.7872 57.1268 27.6171 57.0362 33.7189 55.8814C33.7189 55.8814 35.3232 56.8872 37.5636 57.7585C23.8849 63.621 6.60596 57.4189 17.3499 54.4169Z" fill="#DAE4F1"/>
<path d="M15.6791 46.7667C15.6791 46.7667 12.6842 48.9836 17.2581 49.4567C23.1729 50.0669 27.8439 50.1168 35.9267 48.5604C35.9267 48.5604 37.0446 49.6938 38.8025 50.3136C22.2642 55.1497 3.84338 50.695 15.6791 46.7667Z" fill="#DAE4F1"/>
<path d="M29.7699 33.7895C33.1403 37.67 28.8843 41.1619 28.8843 41.1619C28.8843 41.1619 37.4424 36.7439 33.5121 31.2116C29.8412 26.0524 27.0262 23.489 42.2657 14.6506C42.2657 14.6506 18.3448 20.625 29.7699 33.7895Z" fill="#DAE4F1"/>
<path d="M47.8617 60.0755C47.8617 60.0755 49.8377 61.7036 45.6855 62.9632C37.79 65.3551 12.8234 66.0773 5.88785 63.0585C3.39468 61.9739 8.07008 60.4687 9.54078 60.1529C11.0746 59.8203 11.9511 59.8823 11.9511 59.8823C9.17843 57.929 -5.97023 63.7175 4.25631 65.3752C32.1456 69.8981 55.0958 63.3386 47.8617 60.0755Z" fill="#DAE4F1"/>
<path d="M18.6345 38.8404C18.6345 38.8404 5.93493 41.8567 14.1373 42.9521C17.6005 43.4157 24.5045 43.3108 30.9354 42.772C36.191 42.3287 41.4683 41.3861 41.4683 41.3861C41.4683 41.3861 39.6151 42.1797 38.2744 43.0952C25.3782 46.4869 0.465145 44.909 7.63729 41.4397C13.7028 38.5078 18.6345 38.8404 18.6345 38.8404Z" fill="#DAE4F1"/>
<path d="M41.4151 51.5744C54.5247 44.7621 48.4633 38.2156 44.2326 39.0976C43.1956 39.3134 42.7332 39.5005 42.7332 39.5005C42.7332 39.5005 43.1182 38.8974 43.8535 38.6364C52.2232 35.6938 58.6601 47.315 41.1516 51.9177C41.1516 51.9177 41.3544 51.7365 41.4151 51.5744Z" fill="#DAE4F1"/>
<path d="M33.5119 0.37915C33.5119 0.37915 40.7722 7.64188 26.6258 18.8099C15.2819 27.7686 24.039 32.8766 26.6211 38.7127C19.9995 32.7384 15.1401 27.4791 18.4001 22.5843C23.1851 15.3992 36.4412 11.9156 33.5119 0.37915Z" fill="#DAE4F1"/>
<path d="M19.9226 70.034C32.5062 70.8395 51.8297 69.5871 52.2873 63.6329C52.2873 63.6329 51.4076 65.8901 41.8877 67.6827C31.1474 69.7039 17.9007 69.4679 10.0439 68.1725C10.0439 68.1725 11.6523 69.5037 19.9226 70.034Z" fill="#DAE4F1"/>
</g>
<defs>
<clipPath id="clip0_14_517">
<rect width="51.7919" height="70" fill="white" transform="translate(0.648682 0.304077)"/>
</clipPath>
</defs>
</svg>
