
<svg width="241" height="121" viewBox="0 0 241 121" fill="none" xmlns="http://www.w3.org/2000/svg">
<path fill-rule="evenodd" clip-rule="evenodd" d="M137.754 75.0371C137.754 75.0371 137.754 75.0171 137.754 75.0071C137.754 75.0071 137.754 75.0271 137.754 75.0371ZM155.694 73.6271C155.694 75.1771 155.384 76.1371 154.914 76.6671C154.464 77.1671 153.624 77.5071 152.204 77.5071C150.784 77.5071 149.894 77.1671 149.364 76.6171C148.824 76.0671 148.484 75.1171 148.484 73.6271V51.1871C148.484 48.7971 148.054 46.8771 147.104 45.5471C146.124 44.1771 144.644 43.5171 142.794 43.5171C140.944 43.5171 139.514 44.0471 138.514 45.2071C137.534 46.3471 137.094 47.9871 137.094 50.0071V75.0371C137.054 76.1171 136.744 76.8371 136.264 77.2971C135.744 77.7971 134.894 78.0971 133.614 78.0971C132.334 78.0971 131.484 77.7971 130.844 77.2471C130.234 76.7371 129.894 75.9571 129.894 74.7971V50.4671C129.894 45.9171 130.874 42.5871 132.734 40.3771C134.574 38.1871 137.314 37.0471 141.084 37.0471C143.874 37.0471 146.134 37.6171 147.904 38.7171C149.654 39.8071 150.824 41.3571 151.414 43.4071L152.054 45.6071L152.684 43.4071C153.274 41.3571 154.434 39.8071 156.194 38.7171C157.954 37.6171 160.254 37.0471 163.134 37.0471C167.034 37.0471 169.804 38.1571 171.574 40.2571C173.364 42.3871 174.324 45.7471 174.324 50.4671V74.2071C174.324 75.7571 174.014 76.7171 173.544 77.2471C173.094 77.7471 172.254 78.0871 170.834 78.0871C169.414 78.0871 168.524 77.7471 167.994 77.1971C167.454 76.6471 167.114 75.6971 167.114 74.2071V49.9971C167.114 47.9771 166.684 46.3371 165.694 45.1971C164.694 44.0371 163.224 43.5071 161.414 43.5071C159.604 43.5071 158.074 44.1271 157.094 45.4571C156.144 46.7471 155.724 48.6971 155.724 51.1771V73.6171L155.694 73.6271Z" fill="#FDFDFD"/>
<path fill-rule="evenodd" clip-rule="evenodd" d="M102.214 40.9871C102.214 39.5471 102.554 38.5871 103.104 37.9871C103.654 37.3971 104.514 37.0471 105.814 37.0471C107.114 37.0471 107.984 37.3971 108.524 37.9871C109.084 38.5871 109.414 39.5471 109.414 40.9871V67.1471C109.414 67.7471 109.364 68.5171 109.274 69.4671C109.174 70.4171 109.074 71.1971 108.954 71.7971L108.494 74.2571L110.114 72.3371C111.024 71.2571 112.104 70.7471 113.404 70.7471H122.114C123.474 70.7471 124.414 71.0771 125.054 71.6371C125.674 72.1871 126.024 73.0071 126.024 74.2171C126.024 75.4271 125.684 76.2571 125.104 76.7771C124.514 77.3071 123.554 77.6271 122.124 77.6271H105.834C104.524 77.6271 103.664 77.2771 103.124 76.6871C102.564 76.0871 102.234 75.1271 102.234 73.6871V40.9871H102.214Z" fill="#FDFDFD"/>
<path fill-rule="evenodd" clip-rule="evenodd" d="M85.6541 37.8171C86.1141 37.3471 86.9041 37.0471 88.2041 37.0471C89.5041 37.0471 90.4541 37.3871 91.0241 37.9571C91.5941 38.5271 91.9341 39.4371 91.9341 40.8071C91.9341 44.6971 91.5241 47.8071 90.7241 50.1671C89.9341 52.5171 88.7141 54.2971 87.0941 55.5371L86.2041 56.2171L87.2341 56.6571C89.2541 57.5171 90.7241 58.6971 91.6941 60.1571C92.6641 61.6171 93.1641 63.4271 93.1641 65.5971V74.6071C93.1641 75.8871 92.8541 76.7271 92.3441 77.2471C91.8441 77.7671 91.0341 78.0771 89.7941 78.0771H89.5341C88.2941 78.0371 87.4441 77.7271 86.9141 77.2271C86.3541 76.7071 86.0141 75.8771 86.0141 74.6171V65.4871C86.0141 63.5271 85.6141 61.9371 84.7141 60.8071C83.7641 59.6271 82.2141 59.1171 80.2641 59.1171C78.1841 59.1171 76.5041 59.5371 75.3641 60.5171C74.1841 61.5271 73.6841 63.1971 73.6841 65.3171V74.1571C73.6841 75.5971 73.3441 76.5571 72.7941 77.1571C72.2441 77.7471 71.3841 78.0971 70.0841 78.0971C68.7841 78.0971 67.9141 77.7471 67.3741 77.1571C66.8141 76.5571 66.4841 75.5971 66.4841 74.1571V40.9871C66.4841 39.5471 66.8241 38.5871 67.3741 37.9871C67.9241 37.3971 68.7841 37.0471 70.0841 37.0471C71.3841 37.0471 72.2541 37.3971 72.7941 37.9871C73.3541 38.5871 73.6841 39.5471 73.6841 40.9871V56.4171L74.8041 55.2971C75.3141 54.7871 75.8441 54.3971 76.3641 54.1171C76.8941 53.8371 77.8141 53.4971 79.1941 53.1071C81.3441 52.5071 82.8741 51.2171 83.7041 49.2571C84.5041 47.3671 84.8841 44.4271 84.8841 40.5171C84.8841 39.1371 85.1841 38.2871 85.6441 37.8171H85.6541Z" fill="#FDFDFD"/>
</svg>
