<svg width="144" height="32" viewBox="0 0 144 32" fill="none" xmlns="http://www.w3.org/2000/svg">
<g clip-path="url(#clip0_14_491)">
<path d="M135.789 9.34856C134.112 9.34856 132.635 9.75128 131.377 10.5732C130.367 11.2245 129.56 12.0931 128.923 13.1786L128.892 9.86177H124.463V31.3211H129.077V19.3204C129.077 18.1574 129.294 17.1318 129.745 16.2324C130.18 15.333 130.804 14.6365 131.611 14.1402C132.419 13.644 133.349 13.3954 134.437 13.3954C135.4 13.3954 136.24 13.5975 136.924 14.0007C137.623 14.4039 138.134 14.9915 138.491 15.7359C138.849 16.4958 139.02 17.3972 139.02 18.4361V31.321H143.633V17.7833C143.664 16.124 143.323 14.6669 142.686 13.3953C142.07 12.1635 141.116 11.1314 139.936 10.4188C138.755 9.7055 137.374 9.34856 135.789 9.34856Z" fill="#DAE4F1"/>
<path d="M114.6 0.851562V5.5799H119.261V0.851562H114.6ZM114.6 9.86177V31.3211H119.213V9.86177H114.6Z" fill="#DAE4F1"/>
<path d="M104.782 0.804077V31.3213H109.395V0.804077H104.782Z" fill="#DAE4F1"/>
<path d="M91.6401 4.49463V8.13779C91.6401 8.71156 91.5006 9.14743 91.221 9.42656C90.9413 9.7057 90.5063 9.86173 89.916 9.86173H87.6944V13.7224H91.5619V25.2739C91.5619 26.468 91.8097 27.5391 92.2913 28.454C92.7729 29.369 93.4721 30.0806 94.3732 30.5768C95.2742 31.0731 96.3484 31.3384 97.5757 31.3384H101.038V27.3214H98.428C97.76 27.3214 97.217 27.0893 96.782 26.6241C96.3626 26.1588 96.1616 25.5388 96.1616 24.7635V13.7365H101.164V9.86178H96.1616V4.49473L91.6401 4.49463Z" fill="#DAE4F1"/>
<path d="M75.6689 9.34851C73.5251 9.34851 71.614 9.82926 69.9207 10.7907C68.2559 11.7271 66.8848 13.1073 65.9609 14.777C65.0133 16.4827 64.5469 18.421 64.5469 20.5765C64.5469 22.7476 65.0133 24.6701 65.9609 26.376C66.8643 28.0506 68.2272 29.4334 69.8899 30.3622C71.5832 31.3237 73.4943 31.8045 75.6382 31.8045C77.7509 31.8045 79.6472 31.3237 81.3249 30.3622C82.9721 29.4234 84.3226 28.0424 85.2232 26.376C86.1553 24.6703 86.6204 22.732 86.6204 20.5765C86.6204 18.4054 86.1553 16.4829 85.2232 14.777C84.2911 13.0712 83.0026 11.7521 81.3249 10.7907C79.6627 9.82929 77.7816 9.34851 75.6689 9.34851ZM75.6382 13.4883C76.8344 13.4883 77.907 13.7845 78.8547 14.3893C79.7868 14.9941 80.5161 15.8314 81.0288 16.886C81.5414 17.956 81.7917 19.1793 81.7917 20.5906C81.8072 21.9862 81.557 23.2111 81.0288 24.2812C80.5161 25.3512 79.7868 26.1886 78.8547 26.7779C77.9226 27.3827 76.8361 27.6789 75.6243 27.6789C74.3971 27.6789 73.3095 27.3827 72.3464 26.7779C71.3988 26.1731 70.653 25.3358 70.1249 24.2812C69.5967 23.2111 69.3312 21.9863 69.3312 20.5906C69.3312 19.1949 69.5967 17.956 70.1249 16.886C70.6531 15.816 71.3989 14.9786 72.3464 14.3893C73.2941 13.7845 74.3954 13.4883 75.6382 13.4883Z" fill="#DAE4F1"/>
<path d="M59.5756 1.93667L46.869 15.4744V1.98137H42.1771V31.3218H46.869V17.1035L59.6231 31.3218H65.6648L52.0723 16.141L65.416 1.93652L59.5756 1.93667Z" fill="#DAE4F1"/>
<path d="M29.9671 31.3227H0.559082V1.9823H29.9671L14.9598 16.4347L29.9671 31.3227Z" fill="#DAE4F1"/>
</g>
<defs>
<clipPath id="clip0_14_491">
<rect width="143.077" height="31" fill="white" transform="translate(0.559448 0.804077)"/>
</clipPath>
</defs>
</svg>
