<svg width="56" height="51" viewBox="0 0 56 51" fill="none" xmlns="http://www.w3.org/2000/svg">
<g clip-path="url(#clip0_14_512)">
<path d="M27.9633 19.933C25.0239 19.933 22.641 22.3158 22.641 25.2552C22.641 28.1947 25.0239 30.5775 27.9633 30.5775C30.9027 30.5775 33.2855 28.1947 33.2855 25.2552C33.2855 22.3158 30.9027 19.933 27.9633 19.933Z" fill="#DAE4F1"/>
<path d="M55.6448 25.3035C55.6448 21.1251 51.7754 17.4605 45.6147 15.0487C45.697 14.5056 45.7715 13.9683 45.8244 13.4409C46.432 7.43704 44.9855 3.10375 41.7532 1.2371C38.1367 -0.851116 33.0285 0.664556 27.8635 4.79785C22.6985 0.664556 17.5904 -0.851116 13.9739 1.2371C10.7416 3.10375 9.29499 7.43704 9.90264 13.4409C9.95556 13.9683 10.0281 14.5076 10.1124 15.0526C9.59882 15.2487 9.09506 15.4566 8.6109 15.6742C3.11071 18.1467 0.0822754 21.5702 0.0822754 25.3035C0.0822754 29.4819 3.95162 33.1466 10.1124 35.5583C10.0281 36.1015 9.95556 36.6387 9.90264 37.1662C9.29499 43.17 10.7416 47.5033 13.9739 49.37C15.0852 50.0001 16.3444 50.3223 17.6217 50.3033C20.6835 50.3033 24.2588 48.6915 27.8635 45.8092C31.4663 48.6915 35.0436 50.3033 38.1092 50.3033C39.3865 50.322 40.6457 49.9999 41.7571 49.37C44.9894 47.5033 46.436 43.17 45.8283 37.1662C45.7754 36.6387 45.7009 36.1015 45.6186 35.5583C51.7793 33.1505 55.6487 29.48 55.6487 25.3035M38.0857 2.95081C38.907 2.93099 39.7188 3.12994 40.4379 3.52727C42.6823 4.82334 43.6898 8.33899 43.1998 13.1723C43.1664 13.5017 43.1272 13.835 43.0802 14.1703C40.5185 13.3986 37.8953 12.8482 35.2396 12.5252C33.6296 10.3846 31.8394 8.38576 29.8884 6.55077C32.9521 4.18217 35.8276 2.95081 38.0838 2.95081M37.0312 30.5976C36.0398 32.3188 34.9603 33.9877 33.7969 35.5975C31.825 35.8002 29.8439 35.901 27.8616 35.8995C25.8799 35.9009 23.8995 35.8001 21.9282 35.5975C20.7679 33.9876 19.6917 32.3187 18.7037 30.5976C17.7124 28.8812 16.8115 27.1141 16.0046 25.3035C16.8115 23.493 17.7124 21.7259 18.7037 20.0095C19.6901 18.2952 20.763 16.6323 21.9184 15.0272C23.8933 14.8195 25.8777 14.7161 27.8635 14.7173C29.8452 14.7162 31.8256 14.8169 33.7969 15.0193C34.9562 16.6269 36.0331 18.2925 37.0233 20.0095C38.0139 21.7263 38.9148 23.4934 39.7224 25.3035C38.9148 27.1137 38.0139 28.8807 37.0233 30.5976M41.071 28.6368C41.6931 30.3337 42.2039 32.0694 42.5999 33.8329C40.8811 34.3689 39.1288 34.7914 37.3546 35.0975C38.0289 34.0806 38.6823 33.0224 39.3147 31.9231C39.94 30.8368 40.5261 29.7407 41.0789 28.6447M24.1412 38.4269C25.3604 38.5014 26.6051 38.5446 27.8655 38.5446C29.1259 38.5446 30.3784 38.5014 31.5996 38.4269C30.4417 39.8142 29.1944 41.1242 27.8655 42.3485C26.5395 41.1243 25.2954 39.8143 24.1412 38.4269ZM18.3744 35.0936C16.5996 34.7888 14.8467 34.3676 13.1271 33.8329C13.5216 32.0722 14.0303 30.3391 14.6501 28.6447C15.1951 29.7407 15.7792 30.8368 16.4143 31.9231C17.0494 33.0093 17.706 34.0799 18.3744 35.0975M14.6501 21.9604C14.0326 20.2722 13.5251 18.5458 13.131 16.7918C14.8464 16.2565 16.5945 15.8327 18.3646 15.5232C17.6942 16.5369 17.0376 17.5879 16.4045 18.684C15.7713 19.7801 15.1931 20.8624 14.6403 21.9604M31.5878 12.1782C30.3686 12.1037 29.1239 12.0605 27.8537 12.0605C26.594 12.0605 25.3526 12.0997 24.1294 12.1782C25.2836 10.7908 26.5277 9.48075 27.8537 8.25664C29.1831 9.48043 30.4305 10.7904 31.5878 12.1782ZM39.3108 18.684C38.6757 17.5833 38.0191 16.5245 37.3409 15.5075C39.1198 15.8137 40.8766 16.2369 42.5999 16.7742C42.2045 18.5346 41.6958 20.2676 41.0769 21.9624C40.532 20.8663 39.9459 19.7702 39.3128 18.6859M12.5351 13.1742C12.0392 8.34291 13.0526 4.8253 15.295 3.52923C16.0144 3.13252 16.826 2.93361 17.6472 2.95277C19.9033 2.95277 22.7789 4.18413 25.8426 6.55273C23.8903 8.38903 22.0987 10.3891 20.4875 12.5311C17.8324 12.8556 15.2096 13.404 12.6469 14.1703C12.6018 13.835 12.5606 13.5036 12.5292 13.1742M9.69683 18.0879C9.99869 17.9572 10.3064 17.8265 10.6201 17.6958C11.2366 20.2978 12.0727 22.8428 13.1193 25.3035C12.0707 27.769 11.234 30.3194 10.6181 32.927C5.62363 30.878 2.72848 28.0388 2.72848 25.3035C2.72848 22.7114 5.27668 20.082 9.69683 18.0879ZM15.295 47.0778C13.0526 45.7818 12.0392 42.2641 12.5351 37.4328C12.5665 37.1034 12.6077 36.772 12.6527 36.4348C15.2145 37.2063 17.8376 37.7567 20.4933 38.0799C22.1038 40.2213 23.894 42.2214 25.8446 44.0582C21.5734 47.3582 17.6707 48.4464 15.3009 47.0778M43.1978 37.4328C43.6878 42.2661 42.6803 45.7818 40.4359 47.0778C38.0681 48.4504 34.1635 47.3582 29.8942 44.0582C31.8441 42.2213 33.6337 40.2213 35.2435 38.0799C37.8993 37.7569 40.5224 37.2065 43.0841 36.4348C43.1311 36.772 43.1704 37.1034 43.2037 37.4328M45.1207 32.9231C44.5031 30.317 43.6657 27.768 42.6176 25.3035C43.6653 22.8377 44.502 20.2874 45.1187 17.6801C50.1034 19.7291 53.0064 22.5683 53.0064 25.3035C53.0064 28.0388 50.1113 30.878 45.1168 32.927" fill="#DAE4F1"/>
</g>
<defs>
<clipPath id="clip0_14_512">
<rect width="55.5664" height="50" fill="white" transform="translate(0.0822754 0.304077)"/>
</clipPath>
</defs>
</svg>
