<svg width="24" height="28" viewBox="0 0 24 28" fill="none" xmlns="http://www.w3.org/2000/svg">
<mask id="path-1-outside-1_14_555" maskUnits="userSpaceOnUse" x="-7.44087" y="-0.625022" width="32.2901" height="32.7766" fill="black">
<rect fill="white" x="-7.44087" y="-0.625022" width="32.2901" height="32.7766"/>
<path fill-rule="evenodd" clip-rule="evenodd" d="M14.4514 14.2177C15.0675 13.2139 15.326 7.68923 0.617875 6.14305L2.37895 2.34532C8.19367 2.91314 16.8548 5.0059 21.2042 12.1574C21.9485 13.3822 21.5723 15.0177 20.3629 15.7908C16.3899 18.3253 7.48123 23.4021 4.13346 25.3036C3.31023 25.7727 2.32512 25.8134 1.47056 25.4172C-0.0546097 24.7099 -0.123845 22.5579 1.3506 21.7418C6.20293 19.0526 14.3056 14.5322 14.4514 14.2177Z"/>
</mask>
<path fill-rule="evenodd" clip-rule="evenodd" d="M14.4514 14.2177C15.0675 13.2139 15.326 7.68923 0.617875 6.14305L2.37895 2.34532C8.19367 2.91314 16.8548 5.0059 21.2042 12.1574C21.9485 13.3822 21.5723 15.0177 20.3629 15.7908C16.3899 18.3253 7.48123 23.4021 4.13346 25.3036C3.31023 25.7727 2.32512 25.8134 1.47056 25.4172C-0.0546097 24.7099 -0.123845 22.5579 1.3506 21.7418C6.20293 19.0526 14.3056 14.5322 14.4514 14.2177Z" fill="#24A5FC"/>
<path d="M0.617875 6.14305L0.567511 6.11969L0.534844 6.19014L0.612069 6.19826L0.617875 6.14305ZM14.4514 14.2177L14.4038 14.1884L14.4011 14.1943L14.4514 14.2177ZM2.37895 2.34532L2.38434 2.29007L2.34515 2.28624L2.32859 2.32196L2.37895 2.34532ZM21.2042 12.1574L21.2516 12.1286L21.2516 12.1285L21.2042 12.1574ZM20.3629 15.7908L20.3928 15.8376L20.3928 15.8376L20.3629 15.7908ZM4.13346 25.3036L4.10604 25.2553L4.10597 25.2554L4.13346 25.3036ZM1.3506 21.7418L1.37748 21.7904L1.37751 21.7903L1.3506 21.7418ZM0.617875 6.14305L0.612069 6.19826C7.96158 6.97087 11.5585 8.73652 13.2419 10.423C14.9245 12.1085 14.6961 13.7129 14.4041 14.1886L14.4514 14.2177L14.4988 14.2467C14.8228 13.7186 15.0317 12.0588 13.3205 10.3445C11.6102 8.63118 7.98233 6.86141 0.623678 6.08784L0.617875 6.14305ZM2.37895 2.34532L2.32859 2.32196L0.567511 6.11969L0.617875 6.14305L0.668237 6.1664L2.42931 2.36867L2.37895 2.34532ZM21.2042 12.1574L21.2516 12.1285C16.8877 4.95304 8.20206 2.85818 2.38434 2.29007L2.37895 2.34532L2.37356 2.40057C8.18527 2.96809 16.822 5.05875 21.1567 12.1862L21.2042 12.1574ZM20.3629 15.7908L20.3928 15.8376C21.6277 15.0481 22.0116 13.3791 21.2516 12.1286L21.2042 12.1574L21.1567 12.1862C21.8855 13.3854 21.5169 14.9872 20.333 15.744L20.3629 15.7908ZM4.13346 25.3036L4.16087 25.3519C7.50809 23.4507 16.4183 18.3731 20.3928 15.8376L20.3629 15.7908L20.3331 15.744C16.3616 18.2775 7.45438 23.3535 4.10604 25.2553L4.13346 25.3036ZM1.47056 25.4172L1.4472 25.4675C2.31809 25.8714 3.32214 25.8298 4.16094 25.3518L4.13346 25.3036L4.10597 25.2554C3.29832 25.7156 2.33215 25.7555 1.49391 25.3668L1.47056 25.4172ZM1.3506 21.7418L1.32372 21.6932C-0.190018 22.531 -0.119652 24.7409 1.4472 25.4675L1.47056 25.4172L1.49391 25.3668C0.0104319 24.6789 -0.0576737 22.5847 1.37748 21.7904L1.3506 21.7418ZM14.4514 14.2177L14.4011 14.1943C14.4018 14.1927 14.3977 14.1999 14.3776 14.2181C14.3597 14.2343 14.3341 14.2549 14.3004 14.2799C14.2333 14.3299 14.1376 14.3951 14.0154 14.4744C13.7714 14.6328 13.4246 14.8452 12.9968 15.1001C12.1414 15.6099 10.9637 16.2882 9.63853 17.041C6.98836 18.5464 3.74982 20.3487 1.32369 21.6932L1.3506 21.7418L1.37751 21.7903C3.8037 20.4458 7.04266 18.6432 9.69337 17.1375C11.0187 16.3847 12.1972 15.7059 13.0537 15.1955C13.4818 14.9404 13.83 14.7271 14.0759 14.5675C14.1987 14.4878 14.2968 14.4211 14.3667 14.369C14.4017 14.343 14.4304 14.32 14.452 14.3005C14.4714 14.283 14.4919 14.2623 14.5018 14.241L14.4514 14.2177Z" fill="#24A5FC" mask="url(#path-1-outside-1_14_555)"/>
</svg>
