<svg width="196" height="164" viewBox="0 0 196 164" fill="none" xmlns="http://www.w3.org/2000/svg">
<g clip-path="url(#clip0_27_1964)">
<path fill-rule="evenodd" clip-rule="evenodd" d="M61.3284 26.0726C62.1838 24.7731 63.6642 24 65.2433 24C66.148 24 67.0198 24.2467 67.7601 24.7238C73.4679 28.3919 85.3936 36.8633 90.2791 40.3505C91.6115 41.3046 92.401 42.8344 92.401 44.4628C92.401 46.5683 90.6738 48.2791 88.5683 48.2791C87.7623 48.2791 86.9728 48.0323 86.3148 47.5389C71.8888 36.9949 69.1747 35.2677 68.6812 35.0045C68.1713 35.0045 67.0034 35.3993 66.0329 36.8469C64.3551 39.38 62.6279 46.2558 70.0465 63.7907C70.3755 64.5803 70.3426 65.4685 69.9314 66.2252C67.4804 70.8145 60.0618 84.7635 69.0925 96.5905C69.2076 96.7385 69.3721 96.8701 69.5695 96.9524C69.7196 97.0167 69.8978 97.0904 70.0985 97.1734L70.1009 97.1744C70.3614 97.2821 70.6597 97.4055 70.9841 97.5445L71.1754 97.6253C73.4134 98.57 76.996 100.082 79.5377 101.377C79.7187 101.459 79.8996 101.509 80.097 101.509C80.6563 101.509 81.2813 101.081 81.3142 100.357C81.4623 97.6926 81.6432 94.1231 81.7584 91.8037C81.7748 91.4748 81.6597 91.1787 81.4458 90.9319C81.2155 90.6852 80.9194 90.5372 80.5905 90.5372C78.2547 90.4385 74.0108 89.2541 71.7243 82.329C71.4447 81.4407 71.5763 80.5031 72.1191 79.7629C72.6784 79.0062 73.5337 78.5621 74.4549 78.5621C74.8497 78.5621 75.2445 78.6444 75.6228 78.8088C79.4555 80.5031 84.9331 83.1514 86.5286 83.9246C86.9234 84.122 87.2689 84.4016 87.532 84.747C88.2229 85.6517 89.0454 87.4776 89.0618 90.9977V91.1293C89.654 95.5213 91.7759 119.554 92.1872 124.324C92.2036 124.636 92.3681 124.933 92.6149 125.146L98.0267 129.637L103.422 125.146C103.669 124.949 103.817 124.653 103.85 124.324C103.903 123.732 103.982 122.843 104.08 121.731L104.081 121.729C104.777 113.886 106.456 94.9757 106.975 91.1293V91.0142C106.991 87.4776 107.814 85.6517 108.505 84.747C108.768 84.4016 109.097 84.122 109.508 83.9246C110.643 83.3653 116.499 80.5525 120.414 78.8088C120.792 78.6444 121.187 78.5621 121.582 78.5621C122.503 78.5621 123.375 79.0062 123.918 79.7629C124.461 80.5031 124.609 81.4243 124.313 82.3125C122.01 89.2377 117.766 90.422 115.446 90.5207C115.117 90.5371 114.805 90.6687 114.591 90.9155C114.377 91.1458 114.262 91.4583 114.278 91.7873C114.394 94.1066 114.575 97.6761 114.723 100.341C114.756 101.065 115.364 101.492 115.94 101.492C116.137 101.492 116.318 101.459 116.499 101.361C119.041 100.066 122.623 98.5537 124.861 97.6089L125.053 97.5281C125.567 97.3223 126.016 97.1297 126.352 96.9854L126.467 96.9359C126.665 96.8537 126.829 96.7221 126.944 96.574C135.975 84.747 128.556 70.7981 126.105 66.2087C125.694 65.4521 125.661 64.5803 125.99 63.7907C133.376 46.2394 131.649 39.3636 129.971 36.8304C129.05 35.4322 127.915 35.021 127.323 34.9881C126.796 35.2677 124.049 37.0442 109.706 47.5224C109.031 47.9994 108.258 48.2626 107.452 48.2626C105.347 48.2626 103.619 46.5519 103.619 44.4464C103.619 42.8179 104.409 41.2881 105.741 40.3341C110.594 36.8633 122.52 28.3919 128.244 24.7238C128.984 24.2467 129.856 24 130.744 24C132.323 24 133.787 24.7896 134.676 26.0562C144.2 40.2847 136.008 59.1027 133.277 64.5309C133.096 64.8928 133.113 65.3369 133.327 65.6824C134.741 68.0182 138.113 74.0057 138.952 78.924C139.824 84.0233 137.571 94.6659 136.172 99.2224C135.613 101.065 134.264 102.529 132.488 103.252C115.923 109.964 112.617 120.985 111.959 125.41C111.663 127.449 110.627 129.324 109.064 130.69L98.8985 139.589C98.6024 139.852 98.224 140 97.8128 140C97.4016 140 97.0068 139.852 96.6943 139.572L86.9399 130.69C85.3772 129.324 84.3409 127.449 84.0448 125.41C83.3868 120.985 80.0805 109.98 63.5326 103.269C61.7396 102.545 60.3908 101.081 59.8315 99.2388C58.4333 94.6659 56.1798 84.0397 57.0516 78.9404C57.8905 74.0386 61.2626 68.0511 62.6772 65.6988C62.8911 65.3534 62.9075 64.9092 62.7266 64.5474C59.9796 59.1191 51.8043 40.3012 61.3284 26.0726ZM102.112 130.072H93.8877V131.717H102.112V130.072Z" fill="#24A5FC"/>
</g>
<defs>
<clipPath id="clip0_27_1964">
<rect width="196" height="164" fill="white"/>
</clipPath>
</defs>
</svg>
